<svg version="1.1" width="100%" height="100%" xmlns="http://www.w3.org/2000/svg" viewBox="-255 -255 510 510"><polygon points=" -128,-32  -128,-64  -160,-64 " fill="#ff4020" stroke="#7f4820" stroke-width="3" stroke-linejoin="round"/><polygon points=" -128,-38  -128,-60  -150,-60 " fill="#7f3f3f" stroke="#000000" stroke-width="0" stroke-linejoin="round"/><polygon points=" -128,32  -128,64  -160,64 " fill="#ff4020" stroke="#7f4820" stroke-width="3" stroke-linejoin="round"/><polygon points=" -128,38  -128,60  -150,60 " fill="#7f3f3f" stroke="#000000" stroke-width="0" stroke-linejoin="round"/><polygon points=" -64,0  -128,64  -128,-64 " fill="#ff9040" stroke="#7f4820" stroke-width="3" stroke-linejoin="round"/><polygon points=" -96,-20  -104,-12  -112,-20  -104,-28 " fill="#000000" stroke="#000000" stroke-width="0" stroke-linejoin="round"/><polygon points=" -96,20  -104,28  -112,20  -104,12 " fill="#000000" stroke="#000000" stroke-width="0" stroke-linejoin="round"/><polygon points=" -64,0  -80,16  -96,0  -80,-16 " fill="#804000" stroke="#000000" stroke-width="0" stroke-linejoin="round"/><polygon points=" -32,128  -64,128  -64,160 " fill="#ff4020" stroke="#7f4820" stroke-width="3" stroke-linejoin="round"/><polygon points=" -38,128  -60,128  -60,150 " fill="#7f3f3f" stroke="#000000" stroke-width="0" stroke-linejoin="round"/><polygon points=" 32,128  64,128  64,160 " fill="#ff4020" stroke="#7f4820" stroke-width="3" stroke-linejoin="round"/><polygon points=" 38,128  60,128  60,150 " fill="#7f3f3f" stroke="#000000" stroke-width="0" stroke-linejoin="round"/><polygon points=" 0,64  64,128  -64,128 " fill="#ff9040" stroke="#7f4820" stroke-width="3" stroke-linejoin="round"/><polygon points=" -20,96  -12,104  -20,112  -28,104 " fill="#000000" stroke="#000000" stroke-width="0" stroke-linejoin="round"/><polygon points=" 20,96  28,104  20,112  12,104 " fill="#000000" stroke="#000000" stroke-width="0" stroke-linejoin="round"/><polygon points=" 0,64  16,80  0,96  -16,80 " fill="#804000" stroke="#000000" stroke-width="0" stroke-linejoin="round"/><polygon points=" 128,32  128,64  160,64 " fill="#ff4020" stroke="#7f4820" stroke-width="3" stroke-linejoin="round"/><polygon points=" 128,38  128,60  150,60 " fill="#7f3f3f" stroke="#000000" stroke-width="0" stroke-linejoin="round"/><polygon points=" 128,-32  128,-64  160,-64 " fill="#ff4020" stroke="#7f4820" stroke-width="3" stroke-linejoin="round"/><polygon points=" 128,-38  128,-60  150,-60 " fill="#7f3f3f" stroke="#000000" stroke-width="0" stroke-linejoin="round"/><polygon points=" 64,0  128,-64  128,64 " fill="#ff9040" stroke="#7f4820" stroke-width="3" stroke-linejoin="round"/><polygon points=" 96,20  104,12  112,20  104,28 " fill="#000000" stroke="#000000" stroke-width="0" stroke-linejoin="round"/><polygon points=" 96,-20  104,-28  112,-20  104,-12 " fill="#000000" stroke="#000000" stroke-width="0" stroke-linejoin="round"/><polygon points=" 64,0  80,-16  96,0  80,16 " fill="#804000" stroke="#000000" stroke-width="0" stroke-linejoin="round"/><polygon points=" 32,-128  64,-128  64,-160 " fill="#ff4020" stroke="#7f4820" stroke-width="3" stroke-linejoin="round"/><polygon points=" 38,-128  60,-128  60,-150 " fill="#7f3f3f" stroke="#000000" stroke-width="0" stroke-linejoin="round"/><polygon points=" -32,-128  -64,-128  -64,-160 " fill="#ff4020" stroke="#7f4820" stroke-width="3" stroke-linejoin="round"/><polygon points=" -38,-128  -60,-128  -60,-150 " fill="#7f3f3f" stroke="#000000" stroke-width="0" stroke-linejoin="round"/><polygon points=" 0,-64  -64,-128  64,-128 " fill="#ff9040" stroke="#7f4820" stroke-width="3" stroke-linejoin="round"/><polygon points=" 20,-96  12,-104  20,-112  28,-104 " fill="#000000" stroke="#000000" stroke-width="0" stroke-linejoin="round"/><polygon points=" -20,-96  -28,-104  -20,-112  -12,-104 " fill="#000000" stroke="#000000" stroke-width="0" stroke-linejoin="round"/><polygon points=" 0,-64  -16,-80  0,-96  16,-80 " fill="#804000" stroke="#000000" stroke-width="0" stroke-linejoin="round"/></svg>